REM DIRINDEX 1\2,1\3,1\4,1\5
REM DIRNAME folder01,folder02,folder03,folder04,folder05
TITLE ""
FILE "1800_088.mp3" MP3
  TRACK 01 AUDIO
    TITLE "2:cjc044_2349"
    INDEX 01 00:00:00
  TRACK 02 AUDIO
    TITLE "0:"
    INDEX 01 00:00:70
  TRACK 03 AUDIO
    TITLE "3:cjc044_2350"
    INDEX 01 00:01:52
  TRACK 04 AUDIO
    TITLE "0:"
    INDEX 01 00:03:04
  TRACK 05 AUDIO
    TITLE "4:cjc044_2351"
    INDEX 01 00:03:66
  TRACK 06 AUDIO
    TITLE "0:"
    INDEX 01 00:04:68
  TRACK 07 AUDIO
    TITLE "5:cjc044_2352"
    INDEX 01 00:05:42
  TRACK 08 AUDIO
    TITLE "0:"
    INDEX 01 00:08:46
  TRACK 09 AUDIO
    TITLE "2:cjc044_2353"
    INDEX 01 00:10:27
  TRACK 10 AUDIO
    TITLE "0:"
    INDEX 01 00:11:64
  TRACK 11 AUDIO
    TITLE "3:cjc044_2354"
    INDEX 01 00:12:44
  TRACK 12 AUDIO
    TITLE "0:"
    INDEX 01 00:13:47
  TRACK 13 AUDIO
    TITLE "4:cjc044_2355"
    INDEX 01 00:14:33
  TRACK 14 AUDIO
    TITLE "0:"
    INDEX 01 00:15:70
  TRACK 15 AUDIO
    TITLE "5:cjc044_2356"
    INDEX 01 00:16:48
  TRACK 16 AUDIO
    TITLE "0:"
    INDEX 01 00:19:38
  TRACK 17 AUDIO
    TITLE "2:cjc044_2357"
    INDEX 01 00:21:19
  TRACK 18 AUDIO
    TITLE "0:"
    INDEX 01 00:22:56
  TRACK 19 AUDIO
    TITLE "3:cjc044_2358"
    INDEX 01 00:23:36
  TRACK 20 AUDIO
    TITLE "0:"
    INDEX 01 00:24:53
  TRACK 21 AUDIO
    TITLE "4:cjc044_2359"
    INDEX 01 00:25:35
  TRACK 22 AUDIO
    TITLE "0:"
    INDEX 01 00:26:71
  TRACK 23 AUDIO
    TITLE "5:cjc044_2360"
    INDEX 01 00:27:51
  TRACK 24 AUDIO
    TITLE "0:"
    INDEX 01 00:30:65
  TRACK 25 AUDIO
    TITLE "2:cjc044_2361"
    INDEX 01 00:32:48
  TRACK 26 AUDIO
    TITLE "0:"
    INDEX 01 00:33:56
  TRACK 27 AUDIO
    TITLE "3:cjc044_2362"
    INDEX 01 00:34:45
  TRACK 28 AUDIO
    TITLE "0:"
    INDEX 01 00:35:35
  TRACK 29 AUDIO
    TITLE "4:cjc044_2363"
    INDEX 01 00:36:19
  TRACK 30 AUDIO
    TITLE "0:"
    INDEX 01 00:37:32
  TRACK 31 AUDIO
    TITLE "5:cjc044_2364"
    INDEX 01 00:38:02
  TRACK 32 AUDIO
    TITLE "0:"
    INDEX 01 00:41:59
  TRACK 33 AUDIO
    TITLE "2:cjc044_2365"
    INDEX 01 00:43:44
  TRACK 34 AUDIO
    TITLE "0:"
    INDEX 01 00:44:65
  TRACK 35 AUDIO
    TITLE "3:cjc044_2366"
    INDEX 01 00:45:51
  TRACK 36 AUDIO
    TITLE "0:"
    INDEX 01 00:46:41
  TRACK 37 AUDIO
    TITLE "4:cjc044_2367"
    INDEX 01 00:47:28
  TRACK 38 AUDIO
    TITLE "0:"
    INDEX 01 00:48:49
  TRACK 39 AUDIO
    TITLE "5:cjc044_2368"
    INDEX 01 00:49:23
  TRACK 40 AUDIO
    TITLE "0:"
    INDEX 01 00:53:23
  TRACK 41 AUDIO
    TITLE "2:cjc044_2369"
    INDEX 01 00:55:10
  TRACK 42 AUDIO
    TITLE "0:"
    INDEX 01 00:56:35
  TRACK 43 AUDIO
    TITLE "3:cjc044_2370"
    INDEX 01 00:57:17
  TRACK 44 AUDIO
    TITLE "0:"
    INDEX 01 00:58:24
  TRACK 45 AUDIO
    TITLE "4:cjc044_2371"
    INDEX 01 00:59:08
  TRACK 46 AUDIO
    TITLE "0:"
    INDEX 01 01:00:29
  TRACK 47 AUDIO
    TITLE "5:cjc044_2372"
    INDEX 01 01:01:19
  TRACK 48 AUDIO
    TITLE "0:"
    INDEX 01 01:05:21
  TRACK 49 AUDIO
    TITLE "2:cjc044_2373"
    INDEX 01 01:07:00
  TRACK 50 AUDIO
    TITLE "0:"
    INDEX 01 01:08:17
  TRACK 51 AUDIO
    TITLE "3:cjc044_2374"
    INDEX 01 01:08:74
  TRACK 52 AUDIO
    TITLE "0:"
    INDEX 01 01:10:47
  TRACK 53 AUDIO
    TITLE "4:cjc044_2375"
    INDEX 01 01:11:29
  TRACK 54 AUDIO
    TITLE "0:"
    INDEX 01 01:12:44
  TRACK 55 AUDIO
    TITLE "5:cjc044_2376"
    INDEX 01 01:13:30
  TRACK 56 AUDIO
    TITLE "0:"
    INDEX 01 01:17:08
  TRACK 57 AUDIO
    TITLE "2:cjc044_2377"
    INDEX 01 01:18:66
  TRACK 58 AUDIO
    TITLE "0:"
    INDEX 01 01:20:20
  TRACK 59 AUDIO
    TITLE "3:cjc044_2378"
    INDEX 01 01:21:00
  TRACK 60 AUDIO
    TITLE "0:"
    INDEX 01 01:22:01
  TRACK 61 AUDIO
    TITLE "4:cjc044_2379"
    INDEX 01 01:22:56
  TRACK 62 AUDIO
    TITLE "0:"
    INDEX 01 01:24:08
  TRACK 63 AUDIO
    TITLE "5:cjc044_2380"
    INDEX 01 01:24:67
  TRACK 64 AUDIO
    TITLE "0:"
    INDEX 01 01:28:31
